<svg version="1.2" xmlns="http://www.w3.org/2000/svg" viewBox="0 0 250 93" width="250" height="93"><style>.a{fill:#be1e2d}.b{fill:#fffefe}</style><path class="a" d="m11.2 84.8c-5.9 0-10.7-4.8-10.7-10.7 0-6 4.8-10.7 10.7-10.7 6 0 10.7 4.7 10.7 10.7 0 5.9-4.7 10.7-10.7 10.7z"/><path class="a" d="m114.5 46.7h-42.3v15.2h26.4q-1.4 3.7-4.5 6.7-5.9 6-14.3 6-8.4 0-14.3-6-2.5-2.5-4-5.4-1.9-4-1.9-8.9 0-8.4 5.9-14.3 5.9-5.9 14.3-5.9 8.4 0 14.3 5.9 0.8 0.8 1.6 1.7h17.3q-2.6-6.9-8.1-12.4-10.4-10.4-25.1-10.4-14.7 0-25 10.4-1.5 1.4-2.8 3l-10.6-31.1-26.4 53.9c5 1 9.2 3.8 12.1 7.8l12-24.5 5.3 15.6q0 0.1 0 0.3 0 14.7 10.4 25.1 10.3 10.3 25 10.3 14.7 0 25.1-10.3 10.3-10.4 10.3-25.1 0-3.9-0.7-7.6z"/><path class="b" d="m155.1 64h9.7l-13.6-37.4h-10.5l-13.6 37.4h9.6l2.2-6.6h14zm-4.6-13.7h-9.2l4.6-13.7zm42.7-23.7v23.2l-15.3-23.2h-9.1v37.4h9.1v-23.1l15.3 23.1h9.1v-37.4zm33.2-0.5c-11.2 0-19 7.9-19 19.1 0 11.2 7.9 19.1 19 19.1 9.9 0 16.1-6.5 18.1-12.9v-8.5h-19.9v6.7h11.6c-1.4 4.2-4.5 6.6-9.1 6.6-6.5 0-10.5-4-10.5-11 0-6.5 3.9-10.6 9.8-10.6 3.4 0 6 1.3 7.4 3.8h10c-1.9-7.7-8.4-12.3-17.4-12.3z"/><path class="b" d="m135.6 74.1v1.5q-0.9-0.4-1.6-0.6-0.8-0.2-1.5-0.2-1.3 0-1.9 0.5-0.7 0.5-0.7 1.4 0 0.7 0.4 1.1 0.5 0.4 1.7 0.6l1 0.2q1.7 0.3 2.5 1.1 0.8 0.8 0.8 2.2 0 1.6-1.1 2.5-1.1 0.8-3.2 0.8-0.8 0-1.7-0.2-0.9-0.1-1.9-0.5v-1.6q0.9 0.6 1.8 0.8 0.9 0.3 1.8 0.3 1.3 0 2-0.5 0.7-0.5 0.7-1.5 0-0.8-0.5-1.3-0.5-0.4-1.7-0.7l-0.9-0.2q-1.7-0.3-2.5-1-0.7-0.7-0.7-2 0-1.5 1-2.4 1.1-0.8 2.9-0.8 0.8 0 1.6 0.1 0.8 0.2 1.7 0.4zm11.3 0.7q-1.6 0-2.6 1.2-1 1.3-1 3.4 0 2.1 1 3.4 1 1.2 2.6 1.2 1.7 0 2.6-1.2 1-1.3 1-3.4 0-2.1-1-3.4-0.9-1.2-2.6-1.2zm0-1.2q2.4 0 3.8 1.6 1.4 1.5 1.4 4.2 0 2.7-1.4 4.2-1.4 1.6-3.8 1.6-2.4 0-3.8-1.6-1.4-1.5-1.4-4.2 0-2.7 1.4-4.2 1.4-1.6 3.8-1.6zm11.3 11.4v-11.2h6.4v1.3h-4.9v3.3h4.5v1.2h-4.5v5.4zm10.8-9.9v-1.3h9.5v1.3h-4v9.9h-1.6v-9.9zm16.5 9.9l-2.8-11.2h1.6l2.3 9.5 2.4-9.5h1.7l2.3 9.5 2.4-9.5h1.5l-2.8 11.2h-1.9l-2.4-9.7-2.4 9.7zm22.2-4.1l-2.1-5.6-2.1 5.6zm-7.2 4.1l4.3-11.2h1.7l4.3 11.2h-1.6l-1-2.9h-5.1l-1 2.9zm21-5.3q0.5 0.2 0.9 0.7 0.5 0.6 1 1.5l1.5 3.1h-1.6l-1.5-2.9q-0.5-1.1-1-1.5-0.6-0.3-1.5-0.3h-1.6v4.7h-1.5v-11.2h3.4q1.9 0 2.9 0.8 0.9 0.8 0.9 2.4 0 1.1-0.5 1.8-0.5 0.7-1.4 0.9zm-1.9-4.7h-1.9v4h1.9q1.1 0 1.6-0.5 0.6-0.5 0.6-1.5 0-1-0.6-1.5-0.5-0.5-1.6-0.5zm11 10v-11.2h7.1v1.3h-5.6v3.3h5.3v1.3h-5.3v4h5.7v1.3z"/><path  d="m866.1 217c-0.5-2.6-0.5-4 1.6-3.5 0.9 0.1 1.6 1 2.3 1.5-1.2 0.6-2.4 1.2-3.9 2z"/></svg>